<svg width="14" height="18" viewBox="0 0 14 18" fill="none" xmlns="http://www.w3.org/2000/svg">
<mask id="path-1-inside-1_1_24" fill="white">
<path d="M8 18L3 13H0V5H3L8 0V18Z"/>
</mask>
<path d="M8 18L7.29289 18.7071L9 20.4142V18H8ZM3 13L3.70711 12.2929L3.41421 12H3V13ZM0 13H-1V14H0V13ZM0 5V4H-1V5H0ZM3 5V6H3.41421L3.70711 5.70711L3 5ZM8 0H9V-2.41421L7.29289 -0.707107L8 0ZM8 18L8.70711 17.2929L3.70711 12.2929L3 13L2.29289 13.7071L7.29289 18.7071L8 18ZM3 13V12H0V13V14H3V13ZM0 13H1V5H0H-1V13H0ZM0 5V6H3V5V4H0V5ZM3 5L3.70711 5.70711L8.70711 0.707107L8 0L7.29289 -0.707107L2.29289 4.29289L3 5ZM8 0H7V18H8H9V0H8Z" fill="white" mask="url(#path-1-inside-1_1_24)"/>
<path d="M9.25635 7L13.2563 11M9.25635 7L13.2563 11" stroke="white"/>
<path d="M13.2563 7L9.26815 11.0118M13.2563 7L9.26815 11.0118" stroke="white"/>
</svg>
