<svg width="39" height="39" viewBox="0 0 39 39" fill="none" xmlns="http://www.w3.org/2000/svg">
<path d="M19.8293 25.6386C16.4 25.6386 13.6103 22.8489 13.6103 19.4196C13.6103 15.9904 16.4 13.2011 19.8293 13.2011C23.2586 13.2011 26.0483 15.9909 26.0483 19.4196C26.0483 22.8489 23.2586 25.6386 19.8293 25.6386ZM19.8293 14.4446C17.0861 14.4446 14.8543 16.6764 14.8543 19.4196C14.8543 22.1633 17.0861 24.3946 19.8293 24.3946C22.5725 24.3946 24.8043 22.1633 24.8043 19.4196C24.8043 16.6769 22.5725 14.4446 19.8293 14.4446Z" fill="black"/>
<path d="M19.8292 10.8353C19.4857 10.8353 19.2072 10.5563 19.2072 10.2133V7.62148C19.2072 7.27792 19.4857 7 19.8292 7C20.1723 7 20.4513 7.27792 20.4513 7.62148V10.2133C20.4513 10.5563 20.1723 10.8353 19.8292 10.8353Z" fill="black"/>
<path d="M26.0187 13.9965C25.8593 13.9965 25.7005 13.9357 25.5788 13.8144C25.3358 13.572 25.3358 13.1781 25.5788 12.9352L27.8069 10.707C28.0499 10.4646 28.4432 10.4646 28.6862 10.707C28.9292 10.95 28.9292 11.3439 28.6862 11.5863L26.4581 13.8144C26.3368 13.9357 26.178 13.9965 26.0187 13.9965Z" fill="black"/>
<path d="M12.6489 13.9965C12.4895 13.9965 12.3302 13.9357 12.209 13.8144L9.98031 11.5863C9.73786 11.3439 9.73786 10.95 9.98031 10.707C10.2233 10.4646 10.6171 10.4646 10.8596 10.707L13.0882 12.9352C13.3307 13.1781 13.3307 13.5725 13.0882 13.8144C12.967 13.9357 12.8077 13.9965 12.6489 13.9965Z" fill="black"/>
<path d="M19.3338 31.7458C18.9902 31.7458 18.7118 31.4674 18.7118 31.1238V28.532C18.7118 28.1885 18.9902 27.91 19.3338 27.91C19.6768 27.91 19.9552 28.1885 19.9552 28.532V31.1238C19.9552 31.4674 19.6768 31.7458 19.3338 31.7458Z" fill="black"/>
<path d="M10.9157 28.2215C10.7569 28.2215 10.5976 28.1606 10.4763 28.0394C10.2334 27.797 10.2334 27.4026 10.4763 27.1596L12.7045 24.9315C12.9474 24.6885 13.3408 24.6885 13.5837 24.9315C13.8267 25.1739 13.8267 25.5678 13.5837 25.8108L11.3556 28.0394C11.2344 28.1606 11.0751 28.2215 10.9157 28.2215Z" fill="black"/>
<path d="M28.7428 28.2215C28.5839 28.2215 28.4246 28.1606 28.3028 28.0394L26.0747 25.8108C25.8317 25.5678 25.8317 25.1745 26.0747 24.9315C26.3177 24.6885 26.711 24.6885 26.954 24.9315L29.1821 27.1596C29.4251 27.4026 29.4251 27.7959 29.1821 28.0394C29.0609 28.1606 28.9021 28.2215 28.7428 28.2215Z" fill="black"/>
<path d="M10.4203 20.0422H7.62201C7.27845 20.0422 7 19.7638 7 19.4202C7 19.0772 7.27845 18.7982 7.62201 18.7982H10.4203C10.7638 18.7982 11.0423 19.0766 11.0423 19.4202C11.0417 19.7638 10.7638 20.0422 10.4203 20.0422Z" fill="black"/>
<path d="M31.5637 20.0422H28.2467C27.9032 20.0422 27.6247 19.7638 27.6247 19.4202C27.6247 19.0772 27.9032 18.7982 28.2467 18.7982H31.5637C31.9068 18.7982 32.1858 19.0766 32.1858 19.4202C32.1858 19.7638 31.9068 20.0422 31.5637 20.0422Z" fill="black"/>
<circle cx="19.5" cy="19.5" r="19" stroke="black"/>
</svg>
